<?xml version="1.0" encoding="utf-8"?>
<!-- Generator: Adobe Illustrator 22.1.0, SVG Export Plug-In . SVG Version: 6.00 Build 0)  -->
<svg version="1.1" id="Layer_1" xmlns="http://www.w3.org/2000/svg" xmlns:xlink="http://www.w3.org/1999/xlink" x="0px" y="0px"
	 viewBox="0 0 24 24" style="enable-background:new 0 0 24 24;" xml:space="preserve">
<style type="text/css">
	.st0{fill:#48A23F;}
	.st1{fill:#B4B4B5;}
</style>
<g>
	<path class="st0" d="M12,0C5.4,0,0,5.4,0,12s5.4,12,12,12s12-5.4,12-12S18.6,0,12,0z M12,23c-2.9,0-5.6-1.2-7.6-3
		c0-0.2,0-0.6,0-0.8c0-0.2,0-0.4,0-0.5c0-0.2,0.1-0.3,0.1-0.5l0.1-0.4c0-0.1,0.1-0.2,0.1-0.3C4.9,17.3,5,17.1,5,17.1L5.1,17
		c0.1-0.1,0.2-0.2,0.3-0.2c0,0,0.2-0.1,0.5-0.2s0.8-0.3,1.4-0.5c0.2-0.1,0.4-0.2,0.6-0.2c0.3-0.1,0.5-0.2,0.7-0.2
		c0.2-0.1,0.4-0.2,0.6-0.2c0.2-0.1,0.3-0.1,0.4-0.2h0.1L9.9,15c0.3-0.4,0.3-0.5,0.3-0.5s0-0.1,0.1-0.1c0.1-0.1,0.2-0.2,0.2-0.4
		c0.1-0.3,0.1-0.6,0-0.8c0-0.1-0.1-0.2-0.2-0.4l-0.1-0.1c-0.1-0.1-0.2-0.3-0.3-0.4c0,0-0.1-0.2-0.3-0.5c-0.1-0.1-0.2-0.3-0.2-0.5
		l-0.3-0.6v-0.2v-0.1C9,10,9,9.6,8.9,9.2c0-0.4,0-0.7,0-1c0-0.4,0.1-0.7,0.2-0.9C9.3,7,9.4,6.7,9.6,6.5C9.7,6.3,9.8,6.2,10,6.1
		c0.1-0.1,0.3-0.2,0.5-0.3c0.2-0.1,0.4-0.2,0.7-0.2c0.2-0.1,0.5-0.1,0.8-0.2c0.3,0,0.8,0.1,0.9,0.1c0.2,0.1,0.5,0.1,0.7,0.2
		s0.4,0.2,0.6,0.4c0.1,0.1,0.3,0.2,0.4,0.4l0.1,0.1l0,0c0,0,0,0,0.1,0.1v0.1c0,0.2,0.1,0.5,0.2,0.8c0.1,0.3,0.1,0.6,0.2,0.9
		c0,0.3,0,0.7-0.1,1.1c0,0.4-0.1,0.8-0.2,1.2c-0.1,0.2-0.1,0.4-0.2,0.6c-0.1,0.2-0.2,0.4-0.2,0.5c-0.1,0.2-0.2,0.3-0.3,0.5
		c0,0.1-0.2,0.2-0.3,0.3l-0.3,0.5v0.1c-0.1,0.2-0.1,0.5,0,0.7c0,0.1,0.1,0.3,0.2,0.5c0.1,0.1,0.1,0.2,0.2,0.4
		c0.1,0.2,0.2,0.2,0.4,0.3c0.1,0.1,0.3,0.2,0.9,0.4c0.4,0.1,0.9,0.3,1.6,0.6c0.6,0.2,1,0.4,1.3,0.5c0.2,0.1,0.4,0.2,0.5,0.2
		c0.1,0.1,0.1,0.1,0.2,0.2s0.1,0.2,0.2,0.2l0.2,0.4l0.2,0.7c0,0.2,0.1,0.6,0.1,0.9c0,0.1,0,0.5,0.1,0.8C17.6,21.8,14.9,23,12,23z"/>
</g>
<path class="st1" d="M12,0C5.4,0,0,5.4,0,12s5.4,12,12,12s12-5.4,12-12S18.6,0,12,0z M12,23c-2.9,0-5.6-1.2-7.6-3c0-0.2,0-0.6,0-0.8
	c0-0.2,0-0.4,0-0.5c0-0.2,0.1-0.3,0.1-0.5l0.1-0.4c0-0.1,0.1-0.2,0.1-0.3C4.9,17.3,5,17.1,5,17.1L5.1,17c0.1-0.1,0.2-0.2,0.3-0.2
	c0,0,0.2-0.1,0.5-0.2s0.8-0.3,1.4-0.5c0.2-0.1,0.4-0.2,0.6-0.2c0.3-0.1,0.5-0.2,0.7-0.2c0.2-0.1,0.4-0.2,0.6-0.2
	c0.2-0.1,0.3-0.1,0.4-0.2h0.1L9.9,15c0.3-0.4,0.3-0.5,0.3-0.5s0-0.1,0.1-0.1c0.1-0.1,0.2-0.2,0.2-0.4c0.1-0.3,0.1-0.6,0-0.8
	c0-0.1-0.1-0.2-0.2-0.4l-0.1-0.1c-0.1-0.1-0.2-0.3-0.3-0.4c0,0-0.1-0.2-0.3-0.5c-0.1-0.1-0.2-0.3-0.2-0.5l-0.3-0.6v-0.2v-0.1
	C9,10,9,9.6,8.9,9.2c0-0.4,0-0.7,0-1c0-0.4,0.1-0.7,0.2-0.9C9.3,7,9.4,6.7,9.6,6.5C9.7,6.3,9.8,6.2,10,6.1c0.1-0.1,0.3-0.2,0.5-0.3
	c0.2-0.1,0.4-0.2,0.7-0.2c0.2-0.1,0.5-0.1,0.8-0.2c0.3,0,0.8,0.1,0.9,0.1c0.2,0.1,0.5,0.1,0.7,0.2s0.4,0.2,0.6,0.4
	c0.1,0.1,0.3,0.2,0.4,0.4l0.1,0.1l0,0c0,0,0,0,0.1,0.1v0.1c0,0.2,0.1,0.5,0.2,0.8c0.1,0.3,0.1,0.6,0.2,0.9c0,0.3,0,0.7-0.1,1.1
	c0,0.4-0.1,0.8-0.2,1.2c-0.1,0.2-0.1,0.4-0.2,0.6c-0.1,0.2-0.2,0.4-0.2,0.5c-0.1,0.2-0.2,0.3-0.3,0.5c0,0.1-0.2,0.2-0.3,0.3
	l-0.3,0.5v0.1c-0.1,0.2-0.1,0.5,0,0.7c0,0.1,0.1,0.3,0.2,0.5c0.1,0.1,0.1,0.2,0.2,0.4c0.1,0.2,0.2,0.2,0.4,0.3
	c0.1,0.1,0.3,0.2,0.9,0.4c0.4,0.1,0.9,0.3,1.6,0.6c0.6,0.2,1,0.4,1.3,0.5c0.2,0.1,0.4,0.2,0.5,0.2c0.1,0.1,0.1,0.1,0.2,0.2
	s0.1,0.2,0.2,0.2l0.2,0.4l0.2,0.7c0,0.2,0.1,0.6,0.1,0.9c0,0.1,0,0.5,0.1,0.8C17.6,21.8,14.9,23,12,23z M20.4,18l-0.2-0.8l-0.4-0.6
	c-0.1-0.1-0.2-0.2-0.3-0.3c-0.1-0.1-0.2-0.2-0.3-0.3L19,15.9c-0.1,0-0.2-0.1-0.6-0.2c-0.3-0.1-0.8-0.3-1.3-0.5
	c-0.7-0.3-1.2-0.5-1.6-0.6c-0.5-0.2-0.6-0.3-0.7-0.3c0,0,0,0-0.1-0.1c0-0.1-0.1-0.1-0.1-0.1c0-0.1-0.1-0.3-0.1-0.4v-0.1l0.1-0.2
	c0.1-0.1,0.2-0.3,0.4-0.4c0.1-0.2,0.2-0.3,0.3-0.5s0.2-0.5,0.3-0.6c0.1-0.2,0.1-0.4,0.2-0.7c0.1-0.5,0.2-0.9,0.3-1.3
	c0-0.4,0.1-0.8,0.1-1.2c0-0.5-0.1-0.8-0.2-1.2c-0.1-0.3-0.2-0.7-0.4-1l-0.1-0.1c-0.1-0.1-0.1-0.2-0.2-0.3c-0.2-0.2-0.4-0.5-0.6-0.6
	C14.5,5.1,14.2,5,14,4.8h-0.1c-0.2-0.1-0.5-0.2-0.8-0.2c-0.3-0.1-1-0.1-1.1-0.2h-0.1h-0.1c-0.3,0-0.7,0.1-0.9,0.2
	c-0.3,0.1-0.6,0.2-0.8,0.3C9.8,5,9.5,5.1,9.3,5.3C9.1,5.5,8.9,5.7,8.8,5.9c-0.2,0.3-0.4,0.6-0.5,1C8.1,7.2,8,7.6,8,8
	C7.9,8.4,7.9,8.8,8,9.3c0,0.4,0.1,0.9,0.2,1.3c0,0.2,0.1,0.5,0.1,0.5l0.3,0.7c0.1,0.2,0.2,0.5,0.3,0.5c0.1,0.3,0.2,0.5,0.4,0.6
	c0.1,0.1,0.2,0.2,0.3,0.3l0.1,0.1c0,0,0,0.1,0.1,0.1v0.1c0,0-0.1,0.1-0.1,0.2C9.4,14,9.4,14,9.3,14.1l-0.1,0.1
	c-0.1,0-0.3,0.1-0.4,0.2c-0.2,0.1-0.3,0.2-0.6,0.2c-0.2,0.1-0.3,0.1-0.5,0.2C7.4,15,7.2,15,7,15.1c-0.6,0.2-1.1,0.4-1.4,0.5
	S5.1,15.8,5,15.8c-0.2,0.1-0.5,0.3-0.5,0.4C4.2,16.5,4,17,4,17c-0.1,0.1-0.1,0.3-0.2,0.4l-0.1,0.5c-0.1,0.2-0.1,0.4-0.1,0.6
	c0,0.1,0,0.2,0,0.4C1.9,17,1,14.6,1,12C1,5.9,5.9,1,12,1s11,4.9,11,11c0,2.7-0.9,5.1-2.5,7C20.5,18.6,20.4,18.3,20.4,18z"/>
</svg>
